<svg version="1.2" xmlns="http://www.w3.org/2000/svg" viewBox="0 0 440 223" width="440" height="223">
	<title>SBSB Eastham logo CMYK (1) (1)-pdf</title>
	<defs>
		<clipPath clipPathUnits="userSpaceOnUse" id="cp1">
			<path d="m0 0h440v223h-440z"/>
		</clipPath>
	</defs>
	<style>
		.s0 { fill: #043673 } 
		.s1 { fill: #265eac } 
	</style>
	<g id="Page 1" clip-path="url(#cp1)">
		<path id="Path 1" fill-rule="evenodd" class="s0" d="m92.7 63.7l0.5 0.3q0 0.4 0.2 0.8 0.4 0.7 1.5 1.3 1.1 0.6 2.5 1.1 1.4 0.5 3 0.8 1.5 0.3 2.8 0.3 0.9 0 2.3-0.2 1.5-0.1 2.9-0.5 1.4-0.5 2.4-1.2 1-0.8 1-2 0-1.2-0.9-1.8-1-0.6-2.5-0.9-1.5-0.3-3.5-0.3-1.9-0.1-4-0.3-2-0.1-4-0.5-1.9-0.4-3.5-1.3-1.5-0.9-2.4-2.4-1-1.5-1-4 0-1.6 0.8-3.2 0.8-1.7 2.4-2.9 1.6-1.2 4.1-2 2.4-0.8 5.8-0.8 2.8 0 4.9 0.5 2.1 0.4 3.6 0.9 1.5 0.4 2.6 0.9 1 0.4 1.7 0.4 0.8 0 1.1-0.3l0.6 0.4-3.7 6.7-0.5-0.2q-0.1-0.8-0.4-1.2-0.5-0.7-1.4-1.3-1-0.6-2.4-1.1-1.3-0.5-2.9-0.8-1.5-0.3-3.1-0.3-1.2 0-2.4 0.2-1.3 0.2-2.3 0.6-1 0.4-1.7 1-0.7 0.6-0.6 1.5 0 1.3 0.9 1.9 0.9 0.7 2.5 1 1.5 0.3 3.4 0.4 2 0.1 4 0.3 2.1 0.2 4 0.6 2 0.4 3.5 1.2 1.5 0.9 2.5 2.4 0.9 1.5 0.9 3.9 0 2.8-1.5 4.6-1.4 1.8-3.6 2.8-2.2 1-4.8 1.3-2.5 0.4-4.7 0.4-3.1 0-5.1-0.4-2.1-0.3-3.5-0.8-1.3-0.5-2.1-0.9-0.8-0.4-1.4-0.4-0.4 0-0.7 0.4l-0.8-0.4zm55.6-19.4q2.5 0 4.8 0.4 2.3 0.4 4.1 1.3 1.8 0.9 2.8 2.3 1.1 1.4 1.1 3.5 0 2.6-1.6 3.9-1.5 1.4-3.7 2.1v0.1q2.6 0.8 4.3 2.4 1.7 1.7 1.7 4.7 0 1.6-0.7 3-0.6 1.4-2 2.4-1.4 1-3.4 1.6-1.9 0.5-4.5 0.5h-19.6v-0.9q1.5 0 1.5-1v-24.3q0-1-1.5-1v-1zm1 11.1q2.5 0 4-0.6 1.6-0.7 1.6-2.6 0-2-1.6-2.6-1.5-0.7-4-0.7h-10.2v6.5zm0 12.2q3.4 0 4.9-1.1 1.4-1 1.4-2.7 0-1.7-1.4-2.8-1.5-1-4.9-1h-10.2v7.6zm-56.7 57.8l0.5 0.3q0 0.5 0.2 0.8 0.4 0.7 1.5 1.3 1.1 0.6 2.5 1.1 1.4 0.5 3 0.8 1.5 0.3 2.8 0.3 0.9 0 2.3-0.2 1.5-0.1 2.9-0.5 1.4-0.4 2.4-1.2 1-0.8 1-2 0-1.2-0.9-1.8-1-0.6-2.5-0.9-1.5-0.2-3.5-0.3-1.9-0.1-4-0.3-2-0.1-4-0.5-1.9-0.4-3.4-1.2-1.6-0.9-2.5-2.5-0.9-1.5-0.9-3.9 0-1.7 0.7-3.3 0.8-1.6 2.4-2.9 1.6-1.2 4.1-2 2.5-0.7 5.8-0.7 2.8 0 4.9 0.4 2.1 0.4 3.6 0.9 1.5 0.5 2.6 0.9 1 0.4 1.7 0.4 0.8 0 1.1-0.3l0.7 0.4-3.7 6.7-0.6-0.2q-0.1-0.7-0.4-1.2-0.4-0.7-1.4-1.3-1-0.6-2.4-1.1-1.3-0.4-2.9-0.7-1.5-0.3-3.1-0.3-1.1 0-2.4 0.2-1.3 0.1-2.3 0.5-1 0.4-1.7 1-0.6 0.6-0.6 1.5 0 1.3 0.9 2 0.9 0.6 2.5 0.9 1.5 0.3 3.4 0.5 2 0.1 4 0.2 2.1 0.2 4 0.6 2 0.4 3.5 1.3 1.5 0.9 2.5 2.4 0.9 1.5 0.9 3.9 0 2.8-1.5 4.5-1.4 1.8-3.6 2.8-2.2 1-4.8 1.4-2.5 0.3-4.7 0.3-3.1 0-5.1-0.3-2.1-0.4-3.5-0.9-1.3-0.5-2.1-0.9-0.8-0.4-1.4-0.4-0.4 0-0.7 0.4l-0.8-0.4z"/>
		<path id="Path 2" fill-rule="evenodd" class="s0" d="m148.3 106.1q2.5 0 4.8 0.4 2.3 0.4 4 1.3 1.8 0.9 2.9 2.3 1 1.4 1 3.5 0 2.5-1.5 3.9-1.6 1.3-3.7 2.1v0.1q2.5 0.8 4.3 2.4 1.7 1.6 1.7 4.7 0 1.6-0.7 3-0.7 1.3-2.1 2.3-1.3 1.1-3.3 1.6-2 0.6-4.5 0.6h-19.7v-1q1.5 0 1.5-1v-24.3q0-0.9-1.5-0.9v-1zm1.1 11q2.4 0 4-0.6 1.6-0.6 1.6-2.6 0-2-1.6-2.6-1.6-0.6-4-0.6h-10.2v6.4zm0 12.2q3.3 0 4.8-1 1.5-1 1.5-2.8 0-1.7-1.5-2.7-1.5-1.1-4.8-1.1h-10.3v7.6zm73.6-50.1v7h-173.2v-7h6.4c4.9-34.5 34.2-60.2 69.5-60.2 35.3 0 64.6 25.7 69.5 60.2zm-159.4 0h124.1c-4.8-30.4-30.8-52.8-62-52.8-31.3 0-57.3 22.4-62.1 52.8z"/>
		<path id="Path 3" fill-rule="evenodd" class="s0" d="m200.5 100.7h-5.6c-5.6 33.7-34.8 58.7-69.3 58.7-34.2 0-63.6-25.1-69.2-58.7h-31.6v-7h175.7zm-13 0h-123.7c5.5 29.5 31.6 51.4 61.8 51.4 30.5 0 56.4-21.8 61.9-51.4zm-140.2 81.6q-0.3 0.3-0.8 0.3h-14v6.9h12.3q0.5 0 0.8 0.2 0.2 0.3 0.2 0.8v2.6q0 0.5-0.2 0.8-0.3 0.2-0.8 0.2h-12.3v6.7h14q0.5 0 0.8 0.2 0.2 0.3 0.2 0.8v2.6q0 0.5-0.2 0.8-0.3 0.2-0.8 0.2h-18.2q-0.4 0-0.7-0.2-0.3-0.3-0.3-0.8v-25.4q0-0.5 0.3-0.8 0.3-0.3 0.7-0.3h18.2q0.5 0 0.8 0.3 0.2 0.3 0.2 0.8v2.6q0 0.5-0.2 0.7z"/>
		<path id="Path 4" fill-rule="evenodd" class="s0" d="m55.5 205.4h-3.6q-0.4 0-0.6-0.2-0.3-0.2-0.3-0.5 0-0.1 0.2-0.5l13-25.7q0.3-0.6 0.7-0.6 0.4 0 0.7 0.6l13 25.7q0.1 0.4 0.1 0.5 0 0.3-0.2 0.5-0.3 0.2-0.7 0.2h-3.5q-0.8 0-1.2-0.8l-1.8-3.5h-12.9l-1.7 3.5q-0.4 0.8-1.2 0.8zm5.4-8.9h7.9l-3.9-8.6zm22.6 1.8q0.4 0 0.8 0.2 1.8 1 3.9 1.8 2.1 0.8 4 0.8 2.7 0 4-0.9 1.2-1 1.2-2.4 0-1.2-0.8-1.9-0.8-0.8-2.1-1.2-1.3-0.3-3.3-0.7-2.9-0.5-4.9-1.2-2.1-0.6-3.8-2.3-1.8-1.8-1.8-4.8 0-2.9 1.6-4.8 1.5-1.8 3.9-2.6 2.4-0.8 4.9-0.8 3 0 5.2 0.7 2.2 0.8 4 2.1 0.6 0.4 0.6 1 0 0.4-0.2 0.7l-1.5 2q-0.3 0.6-1 0.6-0.4 0-0.8-0.3-3.3-1.9-6.8-1.9-1.9 0-3.2 0.6-1.4 0.7-1.4 2.2 0 1.1 0.9 1.9 0.9 0.7 2.1 1.1 1.3 0.3 3.3 0.8l0.9 0.1q2.6 0.5 4.6 1.2 1.9 0.7 3.4 2.4 1.5 1.8 1.5 4.8 0 4.1-2.8 6.3-2.9 2.1-7.7 2.1-3.5 0-5.9-0.9-2.5-0.9-4.7-2.4-0.6-0.5-0.6-1.1 0-0.5 0.3-0.9l1.1-1.7q0.4-0.6 1.1-0.6zm41.9-20.1q0.2 0.2 0.2 0.7v2.7q0 0.4-0.2 0.7-0.3 0.3-0.8 0.3h-6.8v21.8q0 0.5-0.3 0.7-0.3 0.3-0.7 0.3h-3.3q-0.5 0-0.7-0.3-0.3-0.2-0.3-0.7v-21.8h-6.9q-0.5 0-0.7-0.3-0.3-0.3-0.3-0.7v-2.7q0-0.5 0.3-0.7 0.2-0.3 0.7-0.3h19q0.5 0 0.8 0.3zm24.4 0q0.3-0.3 0.8-0.3h3.1q0.5 0 0.8 0.3 0.3 0.2 0.3 0.7v25.5q0 0.5-0.3 0.7-0.3 0.3-0.8 0.3h-3.1q-0.5 0-0.8-0.3-0.3-0.2-0.3-0.7v-10h-13.6v10q0 0.5-0.2 0.7-0.3 0.3-0.8 0.3h-3.2q-0.5 0-0.7-0.3-0.3-0.2-0.3-0.7v-25.5q0-0.5 0.3-0.7 0.2-0.3 0.7-0.3h3.2q0.5 0 0.8 0.3 0.2 0.2 0.2 0.7v10.9h13.6v-10.9q0-0.5 0.3-0.7zm14 27.2h-3.5q-0.4 0-0.7-0.2-0.2-0.2-0.2-0.5 0-0.1 0.1-0.5l13-25.7q0.3-0.6 0.7-0.6 0.4 0 0.7 0.6l13 25.7q0.2 0.4 0.2 0.5 0 0.3-0.3 0.5-0.2 0.2-0.6 0.2h-3.5q-0.8 0-1.2-0.8l-1.8-3.5h-13l-1.7 3.5q-0.3 0.8-1.2 0.8zm5.5-8.9h7.8l-3.9-8.6zm22.4-18.2q0-0.4 0.5-0.4 0.1 0 0.3 0.1 0.1 0.1 0.4 0.5l12.7 15.3 12.7-15.3q0.3-0.4 0.4-0.5 0.1-0.1 0.3-0.1 0.4 0 0.4 0.4v26.1q0 0.5-0.2 0.7-0.3 0.3-0.8 0.3h-3.2q-0.5 0-0.8-0.3-0.2-0.2-0.2-0.7v-13.5l-7.9 10.1q-0.2 0.2-0.4 0.3-0.1 0.1-0.3 0.1-0.4 0-0.7-0.4l-7.9-10.1v13.5q0 0.5-0.3 0.7-0.2 0.3-0.7 0.3h-3.2q-0.5 0-0.8-0.3-0.3-0.2-0.3-0.7z"/>
		<path id="Path 5" class="s1" d="m250.9 204.2h-3.6v-181.1h3.6z"/>
		<path id="Path 6" fill-rule="evenodd" class="s0" d="m288.8 43.1q0.5-0.8 0.5-2 0-1.1-0.5-1.9-0.5-0.8-1.2-1.3-0.8-0.6-1.8-1-1-0.4-2.1-0.7-1.3-0.5-2.4-0.9-1.2-0.5-2-1.2-0.8-0.7-1.3-1.8-0.5-1-0.5-2.4 0-1.4 0.6-2.5 0.5-1.1 1.5-1.9 0.9-0.7 2.2-1.1c1.8-0.6 4-0.5 5.8 0.3q1.5 0.6 2.5 1.8l0.2 0.3-1 0.8-0.2-0.2q-0.8-1-2-1.6c-1.4-0.6-3.2-0.7-4.8-0.2q-0.9 0.2-1.7 0.8-0.8 0.6-1.3 1.5-0.5 0.8-0.5 2 0 1.2 0.5 1.9 0.4 0.8 1.1 1.4 0.7 0.6 1.6 0.9 0.9 0.4 1.9 0.7 1.4 0.5 2.5 1 1.3 0.5 2.2 1.1 0.9 0.7 1.5 1.8 0.5 1 0.5 2.4 0 1.4-0.6 2.6-0.5 1.1-1.5 1.9-0.9 0.8-2.1 1.2-1.3 0.3-2.6 0.3-2.1 0-3.8-0.7-1.7-0.7-2.8-2l-0.2-0.2 1-0.9 0.2 0.2q1.1 1.2 2.6 1.8c1.6 0.7 3.5 0.8 5.1 0.3q1-0.4 1.7-1 0.8-0.6 1.2-1.5zm5.7-0.7q-0.5-1.4-0.5-3.1 0-1.6 0.5-3 0.6-1.4 1.5-2.5 1-1 2.4-1.6c1.6-0.7 3.8-0.8 5.5 0q1.3 0.5 2.2 1.4l0.2 0.2-1 0.9-0.2-0.2q-0.7-0.8-1.7-1.2-1-0.4-2.1-0.4-1.4 0-2.5 0.5-1.1 0.5-1.9 1.4-0.8 0.9-1.2 2.1-0.4 1.1-0.4 2.4 0 1.3 0.4 2.5 0.4 1.2 1.2 2 0.8 0.9 1.9 1.4c1.3 0.6 3.1 0.7 4.6 0.2q1.1-0.4 1.8-1.1l0.3-0.3 0.9 0.9-0.3 0.3q-0.9 0.9-2.2 1.3-1.3 0.5-2.6 0.5-1.6 0-2.9-0.6-1.4-0.6-2.4-1.6-0.9-1-1.5-2.4zm16.7 4.1h-1.3v-23.3h1.3v11.4q0.1-0.2 0.3-0.5 0.6-0.8 1.4-1.3 0.7-0.6 1.6-0.9 0.9-0.3 1.9-0.3 1.5 0 2.5 0.6 1.1 0.5 1.7 1.5 0.6 0.8 0.8 2 0.3 1 0.3 2.2v8.6h-1.3v-8.6q0-0.8-0.2-1.7-0.2-0.9-0.6-1.6-0.5-0.8-1.3-1.2-0.7-0.5-1.9-0.5-1.1 0-2 0.4-1 0.4-1.7 1.3-0.7 0.8-1.1 2-0.4 1.2-0.4 2.7zm15.7-4.2q-0.5-1.4-0.5-3.1 0-1.6 0.5-3 0.6-1.4 1.6-2.5 1-1 2.4-1.5c1.8-0.8 4.2-0.8 6.1 0q1.4 0.5 2.4 1.5 1 1.1 1.5 2.5 0.6 1.4 0.6 3 0 1.7-0.6 3.1-0.5 1.4-1.5 2.5-1 1-2.4 1.6-1.4 0.5-3.1 0.5-1.6 0-3-0.5-1.4-0.6-2.4-1.6-1-1.1-1.6-2.5zm4.4-9q-1.1 0.5-1.9 1.4-0.9 0.9-1.3 2-0.4 1.2-0.4 2.5 0 1.4 0.4 2.6 0.4 1.1 1.3 2 0.8 0.9 1.9 1.4 1.1 0.5 2.6 0.5 1.5 0 2.6-0.5 1.2-0.5 2-1.4 0.8-0.9 1.2-2 0.5-1.2 0.5-2.6 0-1.3-0.5-2.5-0.4-1.1-1.2-2-0.8-0.9-2-1.4-1.1-0.5-2.6-0.5-1.5 0-2.6 0.5zm14.1 9.6q-0.2-1.1-0.2-2.2v-8.7h1.3v8.6q0 0.9 0.2 1.8 0.2 0.9 0.6 1.6 0.5 0.7 1.2 1.2 0.8 0.5 2 0.5 1.1 0 2-0.4 1-0.5 1.7-1.3 0.6-0.8 1.1-2 0.4-1.2 0.4-2.7v-7.3h1.3v10.7q0 0.3 0 0.8 0 0.5 0 0.9 0.1 0.6 0.1 1 0 0.4 0 0.7l0.1 0.4h-1.3l-0.1-0.3q0-0.3 0-0.8 0-0.4 0-0.9v-0.1q0-0.3-0.1-0.5-0.1 0.3-0.3 0.6-0.6 0.8-1.4 1.3-0.7 0.6-1.6 0.8-0.9 0.3-1.9 0.3-1.5 0-2.5-0.5-1.1-0.6-1.7-1.5-0.6-0.9-0.9-2zm16.2-0.7q-0.5-1.4-0.5-3.1 0-1.6 0.6-3 0.5-1.4 1.4-2.4 1-1 2.2-1.5 1.3-0.6 2.7-0.6 1.7 0 3 0.6 1.3 0.6 2.1 1.6 0.9 1 1.3 2.2 0.4 1.3 0.4 2.5v0.9h-12.4q0.1 1.1 0.4 2.1 0.4 1.2 1.1 2.1 0.7 0.9 1.8 1.5 1.1 0.6 2.6 0.6 1.6 0 2.8-0.6 1.2-0.7 2-1.8l0.3-0.3 0.9 0.9-0.2 0.2q-1 1.4-2.5 2.1-1.4 0.7-3.3 0.7-1.6 0-2.9-0.6-1.3-0.5-2.3-1.6-0.9-1-1.5-2.5zm2.2-7.3q-0.7 0.9-1 1.9-0.3 0.8-0.3 1.4h11q-0.1-1.1-0.5-2-0.4-1-1.1-1.8-0.7-0.7-1.7-1.2-1-0.4-2.2-0.4-1.5 0-2.5 0.6-1.1 0.7-1.7 1.5zm22.6 9q0.3-0.5 0.3-1.3 0-0.8-0.3-1.3-0.4-0.6-1-0.9-0.6-0.3-1.4-0.6-0.8-0.2-1.5-0.4-0.7-0.2-1.4-0.4-0.7-0.3-1.3-0.8-0.5-0.4-0.8-1.1-0.4-0.6-0.4-1.6 0-1 0.4-1.7 0.4-0.8 1.1-1.2 0.6-0.5 1.5-0.8 0.8-0.2 1.6-0.2 3 0 4.5 2.2l0.2 0.3-1.1 0.6-0.2-0.2q-0.6-0.9-1.4-1.3c-0.8-0.4-1.9-0.5-3.1-0.2q-0.6 0.1-1.1 0.4-0.4 0.3-0.7 0.8-0.3 0.5-0.3 1.3 0 0.8 0.2 1.2 0.2 0.5 0.7 0.8 0.5 0.3 1.1 0.5 0.8 0.2 1.6 0.4 0.8 0.3 1.6 0.5 0.8 0.3 1.5 0.8 0.6 0.5 1 1.2 0.4 0.7 0.4 1.7 0 1-0.4 1.8-0.4 0.8-1.1 1.3-0.7 0.6-1.5 0.9-0.9 0.3-1.9 0.3-1.6 0-2.9-0.7-1.3-0.6-2.2-1.8l-0.2-0.3 1.1-0.7 0.2 0.3c0.9 1.3 2.3 1.9 4.1 1.9q0.6 0 1.2-0.2 0.6-0.1 1.1-0.5 0.5-0.4 0.8-1zm6.2-10.6h-3v-1.3h3v-4h1.3v4h4.1v1.3h-4.1v10q0 1.3 0.6 1.8 0.6 0.5 1.6 0.5 0.8 0 1.4-0.2l0.4-0.2 0.2 1.2-0.2 0.1q-0.4 0.2-0.9 0.3-0.6 0.1-1 0.1-1.8 0-2.6-1.1-0.8-1-0.8-2.5zm-104.3 40.8q-0.3 0.1-0.6 0.2 0.4 0.1 0.7 0.3 1 0.3 1.8 1 0.9 0.7 1.4 1.8 0.6 1.1 0.6 2.6 0 1.8-0.7 3-0.7 1.1-1.8 1.8-1 0.7-2.3 0.9-1.3 0.3-2.4 0.3h-6.8v-21.9h6.1q1.2 0 2.4 0.2 1.3 0.3 2.3 0.9 1 0.6 1.6 1.6 0.6 1.1 0.6 2.6 0 1.2-0.4 2.1-0.4 0.9-1 1.6-0.7 0.6-1.5 1zm-8.8 10.6h5.2q1.3 0 2.5-0.2 1.1-0.3 2-0.9 0.7-0.5 1.2-1.4 0.5-0.9 0.5-2.1 0-1.4-0.6-2.3-0.5-1-1.4-1.6-0.8-0.6-1.9-0.8-1-0.3-2-0.3h-5.5zm6.8-11.2q1-0.2 1.8-0.8 0.8-0.5 1.3-1.3 0.5-0.8 0.5-1.9 0-1.2-0.5-2-0.5-0.8-1.2-1.3-0.8-0.5-1.9-0.7-1-0.2-2.2-0.2h-4.6v8.5h4.7q1.1 0 2.1-0.3z"/>
		<path id="Path 7" fill-rule="evenodd" class="s0" d="m304.6 77.2v-0.8q0-2.1-1.1-3.1-1.1-1-3-1-1.1 0-2.1 0.4-1.1 0.5-1.9 1.2l-0.2 0.2-0.8-1 0.2-0.2q1.1-0.9 2.3-1.4 1.3-0.4 2.5-0.4 2.5 0 4 1.3 1.5 1.3 1.5 4.1v6q0 0.8 0 1.7 0.1 0.8 0.2 1.4l0.1 0.4h-1.3l-0.1-0.3q0-0.3-0.1-0.8 0-0.4 0-0.9-0.1-0.2-0.1-0.4-0.6 1.2-1.7 1.8-1.5 1-3.3 1-0.9 0-1.8-0.3-0.8-0.2-1.6-0.7-0.7-0.6-1.1-1.4-0.5-0.8-0.5-1.9 0-1.6 0.9-2.6 0.8-0.9 2-1.5 1.2-0.5 2.5-0.6 1.4-0.2 2.5-0.2zm0 1.2h-1.8q-1.2 0-2.4 0.2-1.2 0.1-2.2 0.5-1 0.4-1.6 1.1-0.6 0.7-0.6 1.9 0 0.9 0.3 1.4 0.3 0.6 0.9 1 0.5 0.3 1.2 0.5 0.6 0.2 1.2 0.2 1.5 0 2.4-0.6 1-0.5 1.5-1.3 0.6-0.9 0.8-1.9 0.3-1 0.3-2zm16.6-3.8q0.6-1.5 1.8-2.4 1.5-1.1 3.4-1.1 1.5 0 2.5 0.5 1 0.6 1.6 1.5 0.6 0.9 0.9 2 0.2 1.1 0.2 2.2v8.7h-1.3v-8.7q0-0.8-0.2-1.7-0.2-0.9-0.6-1.6-0.4-0.7-1.2-1.2-0.7-0.5-1.9-0.5-1 0-1.8 0.4-0.9 0.5-1.6 1.3-0.6 0.8-1.1 2-0.4 1.2-0.4 2.7v7.3h-1.3v-8.7q0-0.8-0.1-1.7-0.2-0.9-0.6-1.6-0.4-0.8-1.2-1.2-0.7-0.5-1.8-0.5-1 0-1.9 0.4-0.9 0.5-1.5 1.3-0.7 0.8-1.1 2-0.4 1.2-0.4 2.7v7.3h-1.3v-10.7q0-0.3 0-0.8v-1q0-0.5-0.1-0.9 0-0.5 0-0.8l-0.1-0.3h1.3l0.1 0.3q0 0.3 0 0.8l0.1 1.5q0.1-0.3 0.3-0.6 0.6-0.7 1.3-1.3 0.7-0.6 1.6-0.8c1.2-0.5 2.7-0.4 3.7 0q0.9 0.4 1.5 1 0.5 0.6 0.9 1.4 0.1 0.4 0.3 0.8zm18.3-2.9q1.3-0.6 2.9-0.6 2 0 3.8 1.1 1.3 0.8 2.1 2.2v-11.8h1.4v23.4h-1.4v-2.9q-0.8 1.4-2.1 2.2-1.8 1.1-3.8 1.1-1.6 0-2.9-0.6-1.4-0.6-2.3-1.6-1-1-1.5-2.4-0.6-1.4-0.6-3 0-1.7 0.6-3.1 0.5-1.4 1.4-2.4 1-1.1 2.4-1.6zm0.4 1.1q-1.1 0.5-1.9 1.4-0.7 0.9-1.1 2.1-0.5 1.2-0.5 2.5 0 1.3 0.5 2.4 0.4 1.2 1.1 2.1 0.8 0.8 1.9 1.3c1.4 0.7 3.4 0.7 4.9 0q1.1-0.5 1.9-1.3 0.8-0.9 1.2-2.1 0.5-1.2 0.5-2.5 0-1.3-0.5-2.5-0.4-1.1-1.2-2-0.8-0.9-1.9-1.4-1.1-0.5-2.4-0.5-1.4 0-2.5 0.5zm15.2 0.1q1-0.9 2.2-1.4 1.3-0.4 2.5-0.4 2.5 0 4 1.3 1.5 1.3 1.5 4v6.1q0 0.8 0.1 1.7 0 0.8 0.1 1.4l0.1 0.4h-1.3l-0.1-0.3q0-0.3-0.1-0.8 0-0.4 0-0.9 0-0.2-0.1-0.4-0.6 1.2-1.7 1.8-1.5 1-3.3 1-0.9 0-1.8-0.3-0.8-0.2-1.5-0.7-0.8-0.6-1.2-1.4-0.4-0.8-0.4-1.9 0-1.6 0.8-2.6 0.8-1 2-1.5 1.2-0.5 2.6-0.7 1.3-0.1 2.4-0.1h2.1v-0.8q0-2.1-1.2-3.1-1.1-1-3-1-1.1 0-2.1 0.4-1 0.5-1.8 1.2l-0.3 0.2-0.8-1zm8.9 5.5h-1.8q-1.1 0-2.3 0.2-1.2 0.1-2.3 0.5-0.9 0.4-1.6 1.1-0.6 0.7-0.6 1.9 0 0.9 0.4 1.4 0.3 0.6 0.8 1 0.6 0.3 1.2 0.5 0.7 0.2 1.3 0.2 1.4 0 2.4-0.6 0.9-0.5 1.5-1.3 0.6-0.9 0.8-1.9 0.2-1 0.2-2zm12.3 7.6q-0.8 0.3-1.8 0.3-1.6 0-2.9-0.6-1.4-0.6-2.2-1.8l-0.2-0.3 1.1-0.7 0.2 0.2c0.9 1.3 2.2 2 4 2q0.6 0 1.3-0.2 0.6-0.2 1.1-0.6 0.5-0.4 0.8-0.9 0.3-0.6 0.3-1.3 0-0.9-0.4-1.4-0.4-0.5-0.9-0.9-0.7-0.3-1.4-0.5-0.8-0.2-1.5-0.4-0.8-0.2-1.5-0.5-0.7-0.3-1.2-0.7-0.6-0.5-0.9-1.1-0.3-0.7-0.3-1.7 0-1 0.4-1.7 0.4-0.7 1.1-1.2 0.6-0.5 1.4-0.7 0.8-0.2 1.7-0.2 3 0 4.5 2.1l0.2 0.3-1.2 0.7-0.1-0.3q-0.7-0.8-1.5-1.2c-0.8-0.4-1.8-0.6-3.1-0.3q-0.5 0.2-1 0.5-0.5 0.3-0.8 0.8-0.3 0.5-0.3 1.2 0 0.8 0.3 1.3 0.2 0.5 0.6 0.7 0.5 0.3 1.2 0.6 0.7 0.2 1.6 0.4 0.8 0.2 1.6 0.5 0.8 0.3 1.4 0.7 0.7 0.5 1 1.2 0.4 0.7 0.4 1.7 0 1-0.4 1.8-0.4 0.8-1 1.4-0.7 0.5-1.6 0.8zm-96.2 39.2q-1.7-0.7-2.9-1.9l-0.2-0.3 1-0.9 0.2 0.3q1.1 1.1 2.6 1.7c1.6 0.7 3.5 0.8 5.1 0.3q1-0.3 1.8-0.9 0.7-0.6 1.1-1.5 0.5-0.9 0.5-2.1 0-1.1-0.5-1.9-0.5-0.7-1.2-1.3-0.8-0.6-1.8-1-1-0.4-2.1-0.7-1.3-0.4-2.4-0.9-1.2-0.5-2-1.2-0.8-0.7-1.3-1.7-0.5-1-0.5-2.5 0-1.4 0.6-2.5 0.5-1.1 1.5-1.8 1-0.8 2.2-1.2c1.8-0.5 4-0.5 5.8 0.3q1.5 0.6 2.5 1.8l0.2 0.3-1 0.9-0.2-0.3q-0.8-1-2-1.5c-1.4-0.7-3.2-0.8-4.8-0.3q-0.9 0.3-1.7 0.9-0.8 0.5-1.3 1.4-0.5 0.9-0.5 2 0 1.2 0.5 2 0.4 0.8 1.1 1.3 0.7 0.6 1.6 1 0.9 0.4 1.9 0.7 1.4 0.4 2.5 0.9 1.3 0.5 2.2 1.2 0.9 0.7 1.5 1.7 0.5 1 0.5 2.4 0 1.5-0.6 2.6-0.5 1.1-1.5 1.9-0.9 0.8-2.1 1.2-1.3 0.4-2.6 0.4-2 0-3.7-0.8z"/>
		<path id="Path 8" fill-rule="evenodd" class="s0" d="m294.2 121.2q-0.5-1.4-0.5-3.1 0-1.7 0.5-3 0.6-1.4 1.6-2.5 1-1 2.4-1.5c1.8-0.8 4.2-0.8 6 0q1.4 0.5 2.5 1.5 1 1.1 1.5 2.5 0.6 1.3 0.6 3 0 1.7-0.6 3.1-0.5 1.4-1.5 2.5-1.1 1-2.5 1.6-1.4 0.5-3 0.5-1.7 0-3-0.5-1.4-0.6-2.4-1.6-1-1.1-1.6-2.5zm4.4-9q-1.1 0.5-2 1.4-0.8 0.9-1.2 2-0.4 1.2-0.4 2.5 0 1.4 0.4 2.6 0.4 1.1 1.2 2 0.9 0.9 2 1.4 1.1 0.5 2.6 0.5 1.5 0 2.6-0.5 1.2-0.5 2-1.4 0.8-0.9 1.2-2 0.4-1.2 0.4-2.6 0-1.3-0.4-2.5-0.4-1.1-1.2-2-0.8-0.9-2-1.4-1.1-0.5-2.6-0.5-1.5 0-2.6 0.5zm21.5 10.6q0.3-0.5 0.3-1.3 0-0.8-0.3-1.3-0.4-0.6-1-0.9-0.6-0.3-1.4-0.6-0.8-0.2-1.5-0.4-0.7-0.2-1.4-0.4-0.7-0.3-1.3-0.8-0.5-0.4-0.8-1.1-0.4-0.6-0.4-1.6 0-1 0.4-1.7 0.4-0.8 1.1-1.2 0.6-0.5 1.5-0.8 0.8-0.2 1.6-0.2 3 0 4.5 2.2l0.2 0.2-1.1 0.7-0.2-0.2q-0.6-0.9-1.4-1.3c-0.8-0.4-1.9-0.5-3.1-0.2q-0.6 0.1-1.1 0.4-0.4 0.3-0.7 0.8-0.3 0.5-0.3 1.2 0 0.9 0.2 1.3 0.2 0.5 0.7 0.8 0.5 0.3 1.1 0.5 0.8 0.2 1.6 0.4 0.8 0.2 1.6 0.5 0.8 0.3 1.5 0.8 0.6 0.4 1 1.1 0.4 0.8 0.4 1.8 0 1-0.4 1.8-0.4 0.8-1.1 1.3-0.7 0.6-1.5 0.9-0.9 0.3-1.9 0.3-1.6 0-2.9-0.7-1.3-0.6-2.2-1.8l-0.2-0.3 1.1-0.7 0.2 0.3c0.9 1.3 2.3 1.9 4.1 1.9q0.6 0 1.2-0.2 0.6-0.2 1.1-0.5 0.5-0.4 0.8-1zm7.3-20.8v11.5q0.2-0.3 0.3-0.5 0.6-0.8 1.4-1.4 0.8-0.5 1.6-0.8 0.9-0.3 1.9-0.3 1.5 0 2.5 0.6 1.1 0.5 1.7 1.4 0.6 0.9 0.9 2 0.2 1.1 0.2 2.2v8.7h-1.3v-8.6q0-0.8-0.2-1.8-0.2-0.9-0.6-1.6-0.5-0.7-1.3-1.2-0.7-0.5-1.9-0.5-1.1 0-2 0.5-1 0.4-1.7 1.2-0.7 0.8-1.1 2-0.4 1.2-0.4 2.8v7.2h-1.3v-23.4zm28.2 16.3h-12.3q0 1.1 0.3 2.1 0.4 1.2 1.1 2.1 0.8 0.9 1.9 1.5 1.1 0.6 2.6 0.6 1.5 0 2.7-0.6 1.2-0.7 2.1-1.8l0.2-0.3 1 0.8-0.2 0.3q-1.1 1.4-2.5 2.1-1.4 0.7-3.3 0.7-1.6 0-2.9-0.6-1.4-0.5-2.3-1.6-1-1-1.5-2.5-0.5-1.4-0.5-3.1 0-1.6 0.5-3 0.5-1.4 1.5-2.4 0.9-1 2.2-1.5 1.2-0.6 2.7-0.6 1.7 0 3 0.6 1.2 0.6 2.1 1.6 0.8 1 1.2 2.2 0.4 1.3 0.4 2.5zm-11-4.5q-0.7 0.9-1 1.9-0.2 0.8-0.3 1.4h11q-0.1-1.1-0.4-2-0.4-1.1-1.1-1.8-0.8-0.7-1.7-1.2-1-0.4-2.3-0.4-1.4 0-2.5 0.6-1 0.6-1.7 1.5zm14.8 9.7q-0.5-0.9-0.5-2 0-1.6 0.9-2.6 0.8-0.9 2-1.4 1.2-0.6 2.5-0.7 1.3-0.2 2.5-0.2h2v-0.8q0-2.1-1.1-3.1-1.1-1-3-1-1.2 0-2.2 0.5-1 0.4-1.8 1.1l-0.3 0.2-0.7-1 0.2-0.2q1-0.9 2.3-1.3 1.3-0.5 2.5-0.5 2.5 0 4 1.3 1.4 1.3 1.4 4.1v6q0 0.8 0.1 1.7 0.1 0.9 0.2 1.4v0.4h-1.2l-0.1-0.3q-0.1-0.3-0.1-0.7 0-0.5-0.1-0.9 0-0.2 0-0.4-0.6 1.1-1.7 1.8-1.6 0.9-3.3 0.9-0.9 0-1.8-0.2-0.9-0.3-1.6-0.8-0.7-0.5-1.1-1.3zm9.4-5.6h-1.8q-1.1 0-2.3 0.1-1.3 0.1-2.3 0.5-0.9 0.4-1.6 1.1-0.6 0.7-0.6 1.9 0 0.9 0.4 1.5 0.3 0.5 0.8 0.9 0.6 0.4 1.2 0.5 0.7 0.2 1.3 0.2 1.4 0 2.4-0.5 0.9-0.6 1.5-1.4 0.6-0.8 0.8-1.8 0.2-1.1 0.2-2zm-80.5 35q-0.3 0.2-0.6 0.3 0.3 0.1 0.7 0.2 1 0.4 1.8 1 0.8 0.7 1.4 1.8 0.6 1.1 0.6 2.6 0 1.8-0.7 3-0.7 1.2-1.8 1.8-1 0.7-2.3 1-1.3 0.2-2.4 0.2h-6.9v-21.9h6.2q1.2 0 2.4 0.2 1.3 0.3 2.2 0.9 1 0.6 1.7 1.6 0.6 1.1 0.6 2.6 0 1.2-0.4 2.2-0.4 0.9-1.1 1.5-0.6 0.6-1.4 1zm-8.8 10.7h5.2q1.3 0 2.5-0.3 1.1-0.3 1.9-0.8 0.8-0.6 1.3-1.5 0.4-0.9 0.4-2.1 0-1.3-0.5-2.3-0.6-1-1.4-1.5-0.8-0.6-1.9-0.9-1-0.3-2-0.3h-5.5zm6.8-11.1q1-0.3 1.8-0.8 0.8-0.5 1.3-1.4 0.5-0.8 0.5-1.9 0-1.2-0.5-2-0.5-0.8-1.3-1.3-0.7-0.5-1.8-0.7-1.1-0.2-2.2-0.2h-4.6v8.5h4.7q1.1 0 2.1-0.2z"/>
		<path id="Path 9" fill-rule="evenodd" class="s0" d="m306 164.5q-1.4 0.7-3.3 0.7-1.6 0-2.9-0.5-1.3-0.6-2.3-1.7-1-1-1.5-2.4-0.5-1.5-0.5-3.2 0-1.6 0.6-3 0.5-1.3 1.4-2.4 1-1 2.2-1.5 1.3-0.6 2.7-0.6 1.7 0 3 0.6 1.3 0.6 2.1 1.6 0.9 1 1.3 2.2 0.4 1.3 0.4 2.6v0.9h-12.4q0.1 1 0.4 2 0.4 1.2 1.1 2.1 0.7 1 1.8 1.5 1.1 0.6 2.6 0.6 1.6 0 2.8-0.6 1.2-0.6 2-1.8l0.3-0.3 0.9 0.9-0.2 0.2q-1 1.4-2.5 2.1zm-7.8-11.2q-0.7 0.9-1 1.9-0.3 0.7-0.3 1.3h10.9q0-1.1-0.4-2-0.4-1-1.1-1.8-0.7-0.7-1.7-1.1-1-0.4-2.2-0.4-1.5 0-2.5 0.6-1.1 0.6-1.7 1.5zm25.3-0.5q-0.5-0.7-1.2-1.2-0.8-0.4-2-0.4-1.1 0-2 0.4-1 0.4-1.6 1.2-0.7 0.9-1.2 2.1-0.4 1.2-0.4 2.7v7.2h-1.3v-10.6q0-0.4 0-0.8v-1q0-0.5-0.1-0.9 0-0.5 0-0.8l-0.1-0.3h1.4v0.3q0 0.3 0 0.7l0.1 1.6q0.1-0.3 0.3-0.6 0.6-0.8 1.4-1.3 0.8-0.6 1.7-0.9 0.8-0.3 1.8-0.3 1.5 0 2.6 0.6 1 0.5 1.6 1.4 0.6 0.9 0.9 2 0.2 1.1 0.2 2.2v8.7h-1.3v-8.6q0-0.8-0.2-1.7-0.1-0.9-0.6-1.7zm28.6 12v-19.2l-9.2 12.3h-0.3l-0.1-0.1-9.1-12.2v19.2h-1.4v-21.7h1.2l0.1 0.2 9.5 12.7 9.5-12.9h1.1v21.7zm10.2 0.2q-0.9-0.3-1.6-0.8-0.7-0.5-1.2-1.3-0.4-0.8-0.4-1.9 0-1.6 0.8-2.6 0.9-1 2.1-1.5 1.1-0.5 2.5-0.7 1.3-0.1 2.4-0.1h2.1v-0.8q0-2.2-1.1-3.2-1.2-0.9-3-0.9-1.2 0-2.2 0.4-1 0.4-1.8 1.1l-0.3 0.3-0.7-1.1 0.2-0.2q1-0.9 2.3-1.3 1.3-0.5 2.5-0.5 2.5 0 3.9 1.3 1.5 1.4 1.5 4.1v6.1q0 0.8 0.1 1.6 0.1 0.9 0.2 1.4v0.4h-1.3v-0.2q-0.1-0.4-0.1-0.8 0-0.4-0.1-0.9 0-0.2 0-0.4-0.7 1.1-1.7 1.8-1.6 0.9-3.4 0.9-0.8 0-1.7-0.2zm6.7-7.7h-1.8q-1.1 0-2.4 0.1-1.2 0.2-2.2 0.6-1 0.3-1.6 1.1-0.6 0.7-0.6 1.9 0 0.8 0.3 1.4 0.4 0.6 0.9 0.9 0.5 0.4 1.2 0.6 0.6 0.1 1.2 0.1 1.5 0 2.4-0.5 1-0.5 1.6-1.4 0.5-0.8 0.8-1.8 0.2-1 0.2-2zm6.3-7h1.3v14.5h-1.3zm1.3-6.4q0.3 0.3 0.3 0.8 0 0.5-0.3 0.8-0.3 0.3-0.7 0.3-0.4 0-0.7-0.3-0.3-0.3-0.3-0.8 0-0.5 0.3-0.8c0.4-0.4 1-0.4 1.4 0zm17.3 18.5q-1.1 1.4-2.5 2.1-1.5 0.7-3.4 0.7-1.6 0-2.9-0.6-1.3-0.5-2.3-1.6-0.9-1-1.5-2.5-0.5-1.4-0.5-3.1 0-1.6 0.6-3 0.5-1.4 1.4-2.4 1-1 2.2-1.5 1.3-0.6 2.8-0.6 1.7 0 2.9 0.6 1.3 0.6 2.1 1.6 0.9 1 1.3 2.2 0.4 1.3 0.4 2.5v0.9h-12.3q0 1.1 0.3 2.1 0.4 1.2 1.1 2.1 0.7 0.9 1.8 1.5 1.1 0.6 2.6 0.6 1.6 0 2.8-0.7 1.2-0.6 2.1-1.7l0.2-0.3 0.9 0.8zm-10.3-9.1q-0.7 0.9-1 1.9-0.3 0.7-0.3 1.4h11q-0.1-1.1-0.5-2.1-0.4-1-1.1-1.8-0.7-0.7-1.7-1.1-1-0.4-2.2-0.4-1.5 0-2.5 0.6-1.1 0.6-1.7 1.5zm14.9-2.6l-0.1-0.3h1.4v0.3q0 0.3 0 0.7l0.1 1.4q0.6-1.2 1.5-1.8 1.4-1 3-1h0.3q0.1 0 0.3 0h0.3v1.3l-0.4-0.1q-0.1 0-0.2 0h-0.1q-1.3 0-2.1 0.5-0.9 0.6-1.4 1.4-0.6 0.9-0.9 2.1-0.3 1.1-0.3 2.2v7.5h-1.3v-10.7q0-0.3 0-0.8v-1q0-0.5-0.1-0.9 0-0.5 0-0.8zm-107.3 48.9l4.4 4.7h-1.8l-3.3-3.5q-1.3 1.9-2.9 2.9-1.7 1.1-3.9 1.1-1.3 0-2.5-0.4-1.1-0.4-2-1.2-0.9-0.9-1.3-2-0.5-1.2-0.5-2.6 0-1.3 0.4-2.2 0.4-1 1.1-1.8 0.7-0.8 1.7-1.5 0.8-0.5 1.8-1-0.7-0.8-1.1-1.4-0.6-0.7-0.9-1.4-0.4-0.6-0.5-1.3-0.2-0.6-0.2-1.3 0-1.1 0.4-2 0.4-0.9 1.1-1.5 0.6-0.7 1.6-1c1.1-0.5 2.6-0.5 3.8 0q0.9 0.3 1.5 0.9 0.7 0.7 1 1.5 0.4 0.8 0.4 1.7 0 1.2-0.4 2.1-0.4 0.9-1.2 1.6-0.7 0.7-1.7 1.3-0.8 0.5-1.8 1.1l5.9 6.3 3.3-6.2h1.5zm-4 3q1.4-1.1 2.4-2.7l-6.4-6.8q-0.8 0.4-1.6 0.9-0.9 0.6-1.5 1.3-0.7 0.6-1.1 1.5-0.3 0.8-0.3 1.8 0 1.2 0.4 2.1 0.4 1 1.1 1.6 0.7 0.6 1.6 1 0.9 0.4 2 0.4 1.8 0 3.4-1.1zm-4-19.3q-0.6 0.3-1.1 0.8-0.5 0.5-0.8 1.2-0.3 0.6-0.3 1.4 0 1.4 0.7 2.5 0.7 1 1.8 2.4 1-0.5 1.8-1.1 0.9-0.5 1.5-1.1 0.7-0.6 1-1.3 0.4-0.7 0.4-1.6 0-0.7-0.3-1.4-0.3-0.6-0.8-1.1-0.4-0.4-1.1-0.7-0.6-0.2-1.4-0.2-0.7 0-1.4 0.2zm25.1 19.8h12.2v1.2h-13.6v-21.9h13.1v1.3h-11.7v8.7h11v1.2h-11z"/>
		<path id="Path 10" fill-rule="evenodd" class="s0" d="m334.8 203.9l0.1 0.4h-1.3l-0.1-0.3q0-0.3-0.1-0.8 0-0.4 0-0.9-0.1-0.2-0.1-0.4-0.6 1.1-1.7 1.8-1.5 1-3.3 1-0.9 0-1.8-0.3-0.9-0.2-1.6-0.7-0.7-0.6-1.1-1.4-0.5-0.8-0.5-1.9 0-1.6 0.9-2.6 0.8-1 2-1.5 1.2-0.5 2.5-0.7 1.4-0.1 2.5-0.1h2v-0.8q0-2.2-1.1-3.1-1.1-1-3-1-1.1 0-2.1 0.4-1.1 0.4-1.9 1.2l-0.2 0.2-0.8-1.1 0.2-0.1q1.1-0.9 2.3-1.4 1.3-0.4 2.5-0.4 2.5 0 4 1.3 1.5 1.3 1.5 4v6.1q0 0.8 0 1.6 0.1 0.9 0.2 1.5zm-1.6-7.2h-1.8q-1.1 0-2.3 0.1-1.2 0.2-2.3 0.6-0.9 0.4-1.6 1.1-0.5 0.7-0.5 1.9 0 0.9 0.3 1.4 0.3 0.6 0.8 1 0.6 0.3 1.2 0.5 0.7 0.1 1.3 0.1 1.4 0 2.4-0.5 0.9-0.5 1.5-1.3 0.6-0.9 0.8-1.9 0.2-1 0.2-2zm14.6 1.9q0.4 0.7 0.4 1.7 0 1-0.4 1.8-0.4 0.8-1 1.4-0.7 0.5-1.6 0.8-0.8 0.3-1.8 0.3-1.6 0-2.9-0.6-1.3-0.6-2.2-1.8l-0.2-0.3 1.1-0.7 0.2 0.2c0.9 1.3 2.2 2 4 2q0.6 0 1.3-0.2 0.6-0.2 1.1-0.6 0.5-0.4 0.8-0.9 0.3-0.6 0.3-1.3 0-0.9-0.4-1.4-0.4-0.5-0.9-0.9-0.7-0.3-1.4-0.5-0.8-0.2-1.5-0.4-0.8-0.2-1.5-0.5-0.7-0.3-1.2-0.7-0.6-0.5-0.9-1.1-0.3-0.7-0.3-1.7 0-1 0.4-1.7 0.4-0.7 1.1-1.2 0.6-0.5 1.4-0.7 0.8-0.2 1.7-0.2 3 0 4.5 2.1l0.2 0.3-1.2 0.7-0.1-0.3q-0.7-0.8-1.5-1.2c-0.8-0.4-1.8-0.6-3.1-0.3q-0.5 0.2-1 0.5-0.5 0.3-0.8 0.8-0.3 0.5-0.3 1.2 0 0.8 0.3 1.3 0.2 0.5 0.7 0.7 0.4 0.3 1.1 0.6 0.7 0.2 1.6 0.4 0.8 0.2 1.6 0.5 0.8 0.3 1.4 0.7 0.7 0.5 1 1.2zm10.3 4.4l0.2 1.2-0.3 0.1q-0.4 0.1-0.9 0.2-0.5 0.1-1 0.1-1.7 0-2.5-1-0.8-1-0.8-2.5v-10.1h-3v-1.2h3v-4.1h1.3v4.1h4v1.2h-4v10.1q0 1.2 0.6 1.8 0.6 0.5 1.6 0.5 0.8 0 1.4-0.3zm14.9-9.6q0.2 1.1 0.2 2.2v8.7h-1.3v-8.6q0-0.8-0.2-1.8-0.1-0.9-0.6-1.6-0.5-0.7-1.2-1.2-0.8-0.5-2-0.5-1.1 0-2 0.5-0.9 0.4-1.6 1.2-0.7 0.8-1.1 2-0.5 1.2-0.5 2.8v7.2h-1.3v-23.4h1.3v11.5q0.2-0.3 0.4-0.5 0.5-0.8 1.3-1.4 0.8-0.5 1.7-0.8 0.9-0.3 1.8-0.3 1.5 0 2.6 0.5 1 0.6 1.6 1.5 0.6 0.9 0.9 2zm15.9 10.5l0.1 0.4h-1.3l-0.1-0.3q0-0.3-0.1-0.7 0-0.5 0-0.9-0.1-0.2-0.1-0.5-0.6 1.2-1.7 1.9-1.5 0.9-3.3 0.9-0.9 0-1.8-0.2-0.9-0.3-1.6-0.8-0.7-0.5-1.1-1.3-0.5-0.9-0.5-2 0-1.6 0.9-2.6 0.8-0.9 2-1.4 1.2-0.6 2.5-0.7 1.4-0.2 2.5-0.2h2v-0.8q0-2.1-1.1-3.1-1.1-1-3-1-1.1 0-2.1 0.5-1.1 0.4-1.9 1.1l-0.2 0.2-0.8-1 0.2-0.2q1.1-0.9 2.3-1.3 1.3-0.5 2.5-0.5 2.5 0 4 1.3 1.5 1.3 1.5 4.1v6q0 0.8 0 1.7 0.1 0.9 0.2 1.4zm-1.6-7.1h-1.8q-1.1 0-2.3 0.1-1.2 0.1-2.3 0.5-0.9 0.4-1.6 1.1-0.5 0.7-0.6 1.9 0 0.9 0.4 1.5 0.3 0.5 0.8 0.9 0.6 0.4 1.2 0.5 0.7 0.2 1.3 0.2 1.4 0 2.4-0.5 0.9-0.6 1.5-1.4 0.6-0.8 0.8-1.8 0.2-1.1 0.2-2.1zm28-1.1v8.7h-1.3v-8.6q0-0.8-0.2-1.8-0.2-0.9-0.6-1.6-0.5-0.7-1.2-1.2-0.8-0.5-1.9-0.5-1 0-1.9 0.5-0.8 0.4-1.5 1.2-0.7 0.8-1.1 2-0.4 1.2-0.4 2.8v7.2h-1.3v-8.6q0-0.8-0.2-1.8-0.1-0.9-0.5-1.6-0.5-0.7-1.2-1.2-0.7-0.5-1.8-0.5-1 0-1.9 0.5-0.9 0.4-1.6 1.2-0.6 0.8-1 2-0.4 1.2-0.4 2.8v7.2h-1.3v-10.7q0-0.3 0-0.8l-0.1-0.9q0-0.5 0-1 0-0.4-0.1-0.7v-0.4h1.3v0.3q0.1 0.3 0.1 0.8v1.5q0.2-0.3 0.4-0.5 0.5-0.8 1.3-1.4 0.7-0.5 1.5-0.8c1.3-0.5 2.8-0.4 3.8 0q0.8 0.4 1.4 1 0.6 0.6 1 1.5 0.1 0.3 0.2 0.7 0.7-1.5 1.8-2.3 1.6-1.2 3.5-1.2 1.5 0 2.5 0.5 1 0.6 1.6 1.5 0.6 0.9 0.9 2 0.2 1.1 0.2 2.2z"/>
	</g>
</svg>